<?xml version="1.0" encoding="UTF-8" standalone="no"?>
<!DOCTYPE svg PUBLIC "-//W3C//DTD SVG 1.1//EN"
 "http://www.w3.org/Graphics/SVG/1.1/DTD/svg11.dtd">
<!-- Generated by graphviz version 12.2.1 (20241206.2353)
 -->
<!-- Pages: 1 -->
<svg width="1795pt" height="237pt"
 viewBox="0.00 0.00 1794.50 237.00" xmlns="http://www.w3.org/2000/svg" xmlns:xlink="http://www.w3.org/1999/xlink">
<g id="graph0" class="graph" transform="scale(1 1) rotate(0) translate(4 233)">
<polygon fill="white" stroke="none" points="-4,4 -4,-233 1790.5,-233 1790.5,4 -4,4"/>
<!-- 2249721869328 -->
<g id="node1" class="node">
<title>2249721869328</title>
<polygon fill="none" stroke="black" points="956.62,-96.5 956.62,-132.5 1137.38,-132.5 1137.38,-96.5 956.62,-96.5"/>
<text text-anchor="middle" x="966.5" y="-109.7" font-family="Times New Roman,serif" font-size="14.00">l</text>
<polyline fill="none" stroke="black" points="976.38,-97 976.38,-132.5"/>
<text text-anchor="middle" x="1016.25" y="-109.7" font-family="Times New Roman,serif" font-size="14.00">data 9.0000</text>
<polyline fill="none" stroke="black" points="1056.12,-97 1056.12,-132.5"/>
<text text-anchor="middle" x="1096.75" y="-109.7" font-family="Times New Roman,serif" font-size="14.00">grad 5.0000</text>
</g>
<!-- 2249721869648+ -->
<g id="node16" class="node">
<title>2249721869648+</title>
<ellipse fill="none" stroke="black" cx="1203.75" cy="-141.5" rx="27" ry="18"/>
<text text-anchor="middle" x="1203.75" y="-136.45" font-family="Times New Roman,serif" font-size="14.00">+</text>
</g>
<!-- 2249721869328&#45;&gt;2249721869648+ -->
<g id="edge18" class="edge">
<title>2249721869328&#45;&gt;2249721869648+</title>
<path fill="none" stroke="black" d="M1137.57,-130.13C1147.59,-131.88 1157.33,-133.57 1166.09,-135.1"/>
<polygon fill="black" stroke="black" points="1165.43,-138.54 1175.88,-136.81 1166.63,-131.65 1165.43,-138.54"/>
</g>
<!-- 2249721869328+ -->
<g id="node2" class="node">
<title>2249721869328+</title>
<ellipse fill="none" stroke="black" cx="890.25" cy="-114.5" rx="27" ry="18"/>
<text text-anchor="middle" x="890.25" y="-109.45" font-family="Times New Roman,serif" font-size="14.00">+</text>
</g>
<!-- 2249721869328+&#45;&gt;2249721869328 -->
<g id="edge1" class="edge">
<title>2249721869328+&#45;&gt;2249721869328</title>
<path fill="none" stroke="black" d="M917.5,-114.5C925.52,-114.5 934.87,-114.5 944.79,-114.5"/>
<polygon fill="black" stroke="black" points="944.69,-118 954.69,-114.5 944.69,-111 944.69,-118"/>
</g>
<!-- 2249721868368 -->
<g id="node3" class="node">
<title>2249721868368</title>
<polygon fill="none" stroke="black" points="641.62,-96.5 641.62,-132.5 825.38,-132.5 825.38,-96.5 641.62,-96.5"/>
<text text-anchor="middle" x="653" y="-109.7" font-family="Times New Roman,serif" font-size="14.00">d</text>
<polyline fill="none" stroke="black" points="664.38,-97 664.38,-132.5"/>
<text text-anchor="middle" x="704.25" y="-109.7" font-family="Times New Roman,serif" font-size="14.00">data 1.0000</text>
<polyline fill="none" stroke="black" points="744.12,-97 744.12,-132.5"/>
<text text-anchor="middle" x="784.75" y="-109.7" font-family="Times New Roman,serif" font-size="14.00">grad 5.0000</text>
</g>
<!-- 2249721868368&#45;&gt;2249721869328+ -->
<g id="edge11" class="edge">
<title>2249721868368&#45;&gt;2249721869328+</title>
<path fill="none" stroke="black" d="M825.86,-114.5C834.81,-114.5 843.51,-114.5 851.44,-114.5"/>
<polygon fill="black" stroke="black" points="851.32,-118 861.32,-114.5 851.32,-111 851.32,-118"/>
</g>
<!-- 2249721869392 -->
<g id="node4" class="node">
<title>2249721869392</title>
<polygon fill="none" stroke="black" points="953.25,-151.5 953.25,-187.5 1140.75,-187.5 1140.75,-151.5 953.25,-151.5"/>
<text text-anchor="middle" x="963.12" y="-164.7" font-family="Times New Roman,serif" font-size="14.00">j</text>
<polyline fill="none" stroke="black" points="973,-152 973,-187.5"/>
<text text-anchor="middle" x="1016.25" y="-164.7" font-family="Times New Roman,serif" font-size="14.00">data 49.0000</text>
<polyline fill="none" stroke="black" points="1059.5,-152 1059.5,-187.5"/>
<text text-anchor="middle" x="1100.12" y="-164.7" font-family="Times New Roman,serif" font-size="14.00">grad 5.0000</text>
</g>
<!-- 2249721869392&#45;&gt;2249721869648+ -->
<g id="edge20" class="edge">
<title>2249721869392&#45;&gt;2249721869648+</title>
<path fill="none" stroke="black" d="M1141.14,-152.65C1149.9,-151.06 1158.38,-149.53 1166.09,-148.13"/>
<polygon fill="black" stroke="black" points="1166.46,-151.62 1175.68,-146.4 1165.21,-144.73 1166.46,-151.62"/>
</g>
<!-- 2249721869392**2 -->
<g id="node5" class="node">
<title>2249721869392**2</title>
<ellipse fill="none" stroke="black" cx="890.25" cy="-169.5" rx="27" ry="18"/>
<text text-anchor="middle" x="890.25" y="-164.45" font-family="Times New Roman,serif" font-size="14.00">**2</text>
</g>
<!-- 2249721869392**2&#45;&gt;2249721869392 -->
<g id="edge2" class="edge">
<title>2249721869392**2&#45;&gt;2249721869392</title>
<path fill="none" stroke="black" d="M917.5,-169.5C924.66,-169.5 932.87,-169.5 941.6,-169.5"/>
<polygon fill="black" stroke="black" points="941.39,-173 951.39,-169.5 941.39,-166 941.39,-173"/>
</g>
<!-- 2249721868880 -->
<g id="node6" class="node">
<title>2249721868880</title>
<polygon fill="none" stroke="black" points="323.62,-192.5 323.62,-228.5 513.38,-228.5 513.38,-192.5 323.62,-192.5"/>
<text text-anchor="middle" x="334.62" y="-205.7" font-family="Times New Roman,serif" font-size="14.00">c</text>
<polyline fill="none" stroke="black" points="345.62,-193 345.62,-228.5"/>
<text text-anchor="middle" x="385.5" y="-205.7" font-family="Times New Roman,serif" font-size="14.00">data 1.0000</text>
<polyline fill="none" stroke="black" points="425.38,-193 425.38,-228.5"/>
<text text-anchor="middle" x="469.38" y="-205.7" font-family="Times New Roman,serif" font-size="14.00">grad 70.0000</text>
</g>
<!-- 2249721869456+ -->
<g id="node9" class="node">
<title>2249721869456+</title>
<ellipse fill="none" stroke="black" cx="576.75" cy="-169.5" rx="27" ry="18"/>
<text text-anchor="middle" x="576.75" y="-164.45" font-family="Times New Roman,serif" font-size="14.00">+</text>
</g>
<!-- 2249721868880&#45;&gt;2249721869456+ -->
<g id="edge13" class="edge">
<title>2249721868880&#45;&gt;2249721869456+</title>
<path fill="none" stroke="black" d="M489.85,-192.04C507.41,-187.43 525.5,-182.69 540.52,-178.74"/>
<polygon fill="black" stroke="black" points="541.1,-182.21 549.88,-176.29 539.32,-175.44 541.1,-182.21"/>
</g>
<!-- 2249721868944 -->
<g id="node7" class="node">
<title>2249721868944</title>
<polygon fill="none" stroke="black" points="323.62,-55.5 323.62,-91.5 513.38,-91.5 513.38,-55.5 323.62,-55.5"/>
<text text-anchor="middle" x="334.62" y="-68.7" font-family="Times New Roman,serif" font-size="14.00">e</text>
<polyline fill="none" stroke="black" points="345.62,-56 345.62,-91.5"/>
<text text-anchor="middle" x="385.5" y="-68.7" font-family="Times New Roman,serif" font-size="14.00">data 4.0000</text>
<polyline fill="none" stroke="black" points="425.38,-56 425.38,-91.5"/>
<text text-anchor="middle" x="469.38" y="-68.7" font-family="Times New Roman,serif" font-size="14.00">grad 10.0000</text>
</g>
<!-- 2249721869264* -->
<g id="node11" class="node">
<title>2249721869264*</title>
<ellipse fill="none" stroke="black" cx="576.75" cy="-59.5" rx="27" ry="18"/>
<text text-anchor="middle" x="576.75" y="-54.45" font-family="Times New Roman,serif" font-size="14.00">*</text>
</g>
<!-- 2249721868944&#45;&gt;2249721869264* -->
<g id="edge14" class="edge">
<title>2249721868944&#45;&gt;2249721869264*</title>
<path fill="none" stroke="black" d="M513.55,-65.07C522.2,-64.3 530.58,-63.55 538.24,-62.86"/>
<polygon fill="black" stroke="black" points="538.46,-66.36 548.11,-61.98 537.84,-59.38 538.46,-66.36"/>
</g>
<!-- 2249721869456 -->
<g id="node8" class="node">
<title>2249721869456</title>
<polygon fill="none" stroke="black" points="639.75,-151.5 639.75,-187.5 827.25,-187.5 827.25,-151.5 639.75,-151.5"/>
<text text-anchor="middle" x="649.62" y="-164.7" font-family="Times New Roman,serif" font-size="14.00">i</text>
<polyline fill="none" stroke="black" points="659.5,-152 659.5,-187.5"/>
<text text-anchor="middle" x="699.38" y="-164.7" font-family="Times New Roman,serif" font-size="14.00">data 7.0000</text>
<polyline fill="none" stroke="black" points="739.25,-152 739.25,-187.5"/>
<text text-anchor="middle" x="783.25" y="-164.7" font-family="Times New Roman,serif" font-size="14.00">grad 70.0000</text>
</g>
<!-- 2249721869456&#45;&gt;2249721869392**2 -->
<g id="edge19" class="edge">
<title>2249721869456&#45;&gt;2249721869392**2</title>
<path fill="none" stroke="black" d="M827.64,-169.5C835.95,-169.5 843.99,-169.5 851.39,-169.5"/>
<polygon fill="black" stroke="black" points="851.25,-173 861.25,-169.5 851.25,-166 851.25,-173"/>
</g>
<!-- 2249721869456+&#45;&gt;2249721869456 -->
<g id="edge3" class="edge">
<title>2249721869456+&#45;&gt;2249721869456</title>
<path fill="none" stroke="black" d="M604,-169.5C611.16,-169.5 619.37,-169.5 628.1,-169.5"/>
<polygon fill="black" stroke="black" points="627.89,-173 637.89,-169.5 627.89,-166 627.89,-173"/>
</g>
<!-- 2249721869264 -->
<g id="node10" class="node">
<title>2249721869264</title>
<polygon fill="none" stroke="black" points="641.62,-41.5 641.62,-77.5 825.38,-77.5 825.38,-41.5 641.62,-41.5"/>
<text text-anchor="middle" x="653" y="-54.7" font-family="Times New Roman,serif" font-size="14.00">k</text>
<polyline fill="none" stroke="black" points="664.38,-42 664.38,-77.5"/>
<text text-anchor="middle" x="704.25" y="-54.7" font-family="Times New Roman,serif" font-size="14.00">data 8.0000</text>
<polyline fill="none" stroke="black" points="744.12,-42 744.12,-77.5"/>
<text text-anchor="middle" x="784.75" y="-54.7" font-family="Times New Roman,serif" font-size="14.00">grad 5.0000</text>
</g>
<!-- 2249721869264&#45;&gt;2249721869328+ -->
<g id="edge9" class="edge">
<title>2249721869264&#45;&gt;2249721869328+</title>
<path fill="none" stroke="black" d="M799.19,-77.96C808.66,-80.97 818.25,-84.19 827.25,-87.5 837.1,-91.12 847.63,-95.5 857.16,-99.67"/>
<polygon fill="black" stroke="black" points="855.47,-102.75 866.03,-103.62 858.32,-96.36 855.47,-102.75"/>
</g>
<!-- 2249721869264*&#45;&gt;2249721869264 -->
<g id="edge4" class="edge">
<title>2249721869264*&#45;&gt;2249721869264</title>
<path fill="none" stroke="black" d="M604,-59.5C611.69,-59.5 620.59,-59.5 630.05,-59.5"/>
<polygon fill="black" stroke="black" points="629.87,-63 639.87,-59.5 629.87,-56 629.87,-63"/>
</g>
<!-- 2249721868432 -->
<g id="node12" class="node">
<title>2249721868432</title>
<polygon fill="none" stroke="black" points="0,-165.5 0,-201.5 197.25,-201.5 197.25,-165.5 0,-165.5"/>
<text text-anchor="middle" x="11.38" y="-178.7" font-family="Times New Roman,serif" font-size="14.00">b</text>
<polyline fill="none" stroke="black" points="22.75,-166 22.75,-201.5"/>
<text text-anchor="middle" x="62.62" y="-178.7" font-family="Times New Roman,serif" font-size="14.00">data 3.0000</text>
<polyline fill="none" stroke="black" points="102.5,-166 102.5,-201.5"/>
<text text-anchor="middle" x="149.88" y="-178.7" font-family="Times New Roman,serif" font-size="14.00">grad 140.0000</text>
</g>
<!-- 2249721869200* -->
<g id="node19" class="node">
<title>2249721869200*</title>
<ellipse fill="none" stroke="black" cx="260.25" cy="-155.5" rx="27" ry="18"/>
<text text-anchor="middle" x="260.25" y="-150.45" font-family="Times New Roman,serif" font-size="14.00">*</text>
</g>
<!-- 2249721868432&#45;&gt;2249721869200* -->
<g id="edge15" class="edge">
<title>2249721868432&#45;&gt;2249721869200*</title>
<path fill="none" stroke="black" d="M197.53,-166.33C206.36,-164.78 214.88,-163.28 222.62,-161.93"/>
<polygon fill="black" stroke="black" points="222.98,-165.42 232.22,-160.24 221.77,-158.52 222.98,-165.42"/>
</g>
<!-- 2249721869072 -->
<g id="node13" class="node">
<title>2249721869072</title>
<polygon fill="none" stroke="black" points="324.38,-0.5 324.38,-36.5 512.62,-36.5 512.62,-0.5 324.38,-0.5"/>
<text text-anchor="middle" x="334.62" y="-13.7" font-family="Times New Roman,serif" font-size="14.00">f</text>
<polyline fill="none" stroke="black" points="344.88,-1 344.88,-36.5"/>
<text text-anchor="middle" x="384.75" y="-13.7" font-family="Times New Roman,serif" font-size="14.00">data 2.0000</text>
<polyline fill="none" stroke="black" points="424.62,-1 424.62,-36.5"/>
<text text-anchor="middle" x="468.62" y="-13.7" font-family="Times New Roman,serif" font-size="14.00">grad 20.0000</text>
</g>
<!-- 2249721869072&#45;&gt;2249721869264* -->
<g id="edge10" class="edge">
<title>2249721869072&#45;&gt;2249721869264*</title>
<path fill="none" stroke="black" d="M489.85,-36.96C507.41,-41.57 525.5,-46.31 540.52,-50.26"/>
<polygon fill="black" stroke="black" points="539.32,-53.56 549.88,-52.71 541.1,-46.79 539.32,-53.56"/>
</g>
<!-- 2249721869136 -->
<g id="node14" class="node">
<title>2249721869136</title>
<polygon fill="none" stroke="black" points="1269,-178.5 1269,-214.5 1459.5,-214.5 1459.5,-178.5 1269,-178.5"/>
<text text-anchor="middle" x="1280.38" y="-191.7" font-family="Times New Roman,serif" font-size="14.00">g</text>
<polyline fill="none" stroke="black" points="1291.75,-179 1291.75,-214.5"/>
<text text-anchor="middle" x="1331.62" y="-191.7" font-family="Times New Roman,serif" font-size="14.00">data 5.0000</text>
<polyline fill="none" stroke="black" points="1371.5,-179 1371.5,-214.5"/>
<text text-anchor="middle" x="1415.5" y="-191.7" font-family="Times New Roman,serif" font-size="14.00">grad 58.0000</text>
</g>
<!-- 2249721868240* -->
<g id="node21" class="node">
<title>2249721868240*</title>
<ellipse fill="none" stroke="black" cx="1524.75" cy="-168.5" rx="27" ry="18"/>
<text text-anchor="middle" x="1524.75" y="-163.45" font-family="Times New Roman,serif" font-size="14.00">*</text>
</g>
<!-- 2249721869136&#45;&gt;2249721868240* -->
<g id="edge8" class="edge">
<title>2249721869136&#45;&gt;2249721868240*</title>
<path fill="none" stroke="black" d="M1459.74,-179.81C1469.38,-178.1 1478.71,-176.46 1487.13,-174.97"/>
<polygon fill="black" stroke="black" points="1487.63,-178.44 1496.87,-173.25 1486.41,-171.54 1487.63,-178.44"/>
</g>
<!-- 2249721869648 -->
<g id="node15" class="node">
<title>2249721869648</title>
<polygon fill="none" stroke="black" points="1266.75,-123.5 1266.75,-159.5 1461.75,-159.5 1461.75,-123.5 1266.75,-123.5"/>
<text text-anchor="middle" x="1280.38" y="-136.7" font-family="Times New Roman,serif" font-size="14.00">m</text>
<polyline fill="none" stroke="black" points="1294,-124 1294,-159.5"/>
<text text-anchor="middle" x="1337.25" y="-136.7" font-family="Times New Roman,serif" font-size="14.00">data 58.0000</text>
<polyline fill="none" stroke="black" points="1380.5,-124 1380.5,-159.5"/>
<text text-anchor="middle" x="1421.12" y="-136.7" font-family="Times New Roman,serif" font-size="14.00">grad 5.0000</text>
</g>
<!-- 2249721869648&#45;&gt;2249721868240* -->
<g id="edge12" class="edge">
<title>2249721869648&#45;&gt;2249721868240*</title>
<path fill="none" stroke="black" d="M1462.02,-157.98C1470.83,-159.49 1479.35,-160.94 1487.09,-162.25"/>
<polygon fill="black" stroke="black" points="1486.24,-165.66 1496.69,-163.89 1487.42,-158.76 1486.24,-165.66"/>
</g>
<!-- 2249721869648+&#45;&gt;2249721869648 -->
<g id="edge5" class="edge">
<title>2249721869648+&#45;&gt;2249721869648</title>
<path fill="none" stroke="black" d="M1230.92,-141.5C1238.09,-141.5 1246.34,-141.5 1255.13,-141.5"/>
<polygon fill="black" stroke="black" points="1255.01,-145 1265.01,-141.5 1255.01,-138 1255.01,-145"/>
</g>
<!-- 2249721868176 -->
<g id="node17" class="node">
<title>2249721868176</title>
<polygon fill="none" stroke="black" points="0.38,-110.5 0.38,-146.5 196.88,-146.5 196.88,-110.5 0.38,-110.5"/>
<text text-anchor="middle" x="11.38" y="-123.7" font-family="Times New Roman,serif" font-size="14.00">a</text>
<polyline fill="none" stroke="black" points="22.38,-111 22.38,-146.5"/>
<text text-anchor="middle" x="62.25" y="-123.7" font-family="Times New Roman,serif" font-size="14.00">data 2.0000</text>
<polyline fill="none" stroke="black" points="102.12,-111 102.12,-146.5"/>
<text text-anchor="middle" x="149.5" y="-123.7" font-family="Times New Roman,serif" font-size="14.00">grad 210.0000</text>
</g>
<!-- 2249721868176&#45;&gt;2249721869200* -->
<g id="edge16" class="edge">
<title>2249721868176&#45;&gt;2249721869200*</title>
<path fill="none" stroke="black" d="M197.08,-144.98C206.04,-146.5 214.7,-147.96 222.55,-149.29"/>
<polygon fill="black" stroke="black" points="221.87,-152.73 232.31,-150.94 223.03,-145.82 221.87,-152.73"/>
</g>
<!-- 2249721869200 -->
<g id="node18" class="node">
<title>2249721869200</title>
<polygon fill="none" stroke="black" points="323.25,-137.5 323.25,-173.5 513.75,-173.5 513.75,-137.5 323.25,-137.5"/>
<text text-anchor="middle" x="334.62" y="-150.7" font-family="Times New Roman,serif" font-size="14.00">h</text>
<polyline fill="none" stroke="black" points="346,-138 346,-173.5"/>
<text text-anchor="middle" x="385.88" y="-150.7" font-family="Times New Roman,serif" font-size="14.00">data 6.0000</text>
<polyline fill="none" stroke="black" points="425.75,-138 425.75,-173.5"/>
<text text-anchor="middle" x="469.75" y="-150.7" font-family="Times New Roman,serif" font-size="14.00">grad 70.0000</text>
</g>
<!-- 2249721869200&#45;&gt;2249721869456+ -->
<g id="edge17" class="edge">
<title>2249721869200&#45;&gt;2249721869456+</title>
<path fill="none" stroke="black" d="M514,-163.97C522.52,-164.73 530.76,-165.47 538.31,-166.15"/>
<polygon fill="black" stroke="black" points="537.75,-169.61 548.02,-167.02 538.37,-162.64 537.75,-169.61"/>
</g>
<!-- 2249721869200*&#45;&gt;2249721869200 -->
<g id="edge6" class="edge">
<title>2249721869200*&#45;&gt;2249721869200</title>
<path fill="none" stroke="black" d="M287.4,-155.5C294.55,-155.5 302.76,-155.5 311.5,-155.5"/>
<polygon fill="black" stroke="black" points="311.31,-159 321.31,-155.5 311.31,-152 311.31,-159"/>
</g>
<!-- 2249721868240 -->
<g id="node20" class="node">
<title>2249721868240</title>
<polygon fill="none" stroke="black" points="1587.75,-150.5 1587.75,-186.5 1786.5,-186.5 1786.5,-150.5 1587.75,-150.5"/>
<text text-anchor="middle" x="1599.88" y="-163.7" font-family="Times New Roman,serif" font-size="14.00">L</text>
<polyline fill="none" stroke="black" points="1612,-151 1612,-186.5"/>
<text text-anchor="middle" x="1658.62" y="-163.7" font-family="Times New Roman,serif" font-size="14.00">data 290.0000</text>
<polyline fill="none" stroke="black" points="1705.25,-151 1705.25,-186.5"/>
<text text-anchor="middle" x="1745.88" y="-163.7" font-family="Times New Roman,serif" font-size="14.00">grad 1.0000</text>
</g>
<!-- 2249721868240*&#45;&gt;2249721868240 -->
<g id="edge7" class="edge">
<title>2249721868240*&#45;&gt;2249721868240</title>
<path fill="none" stroke="black" d="M1552.23,-168.5C1559.36,-168.5 1567.54,-168.5 1576.27,-168.5"/>
<polygon fill="black" stroke="black" points="1576.06,-172 1586.06,-168.5 1576.06,-165 1576.06,-172"/>
</g>
</g>
</svg>
