<?xml version="1.0" encoding="UTF-8" standalone="no"?>
<!DOCTYPE svg PUBLIC "-//W3C//DTD SVG 1.1//EN"
 "http://www.w3.org/Graphics/SVG/1.1/DTD/svg11.dtd">
<!-- Generated by graphviz version 12.2.1 (20241206.2353)
 -->
<!-- Pages: 1 -->
<svg width="1771pt" height="237pt"
 viewBox="0.00 0.00 1770.50 237.00" xmlns="http://www.w3.org/2000/svg" xmlns:xlink="http://www.w3.org/1999/xlink">
<g id="graph0" class="graph" transform="scale(1 1) rotate(0) translate(4 233)">
<polygon fill="white" stroke="none" points="-4,4 -4,-233 1766.5,-233 1766.5,4 -4,4"/>
<!-- 2249721859600 -->
<g id="node1" class="node">
<title>2249721859600</title>
<polygon fill="none" stroke="black" points="1563.75,-150.5 1563.75,-186.5 1762.5,-186.5 1762.5,-150.5 1563.75,-150.5"/>
<text text-anchor="middle" x="1575.88" y="-163.7" font-family="Times New Roman,serif" font-size="14.00">L</text>
<polyline fill="none" stroke="black" points="1588,-151 1588,-186.5"/>
<text text-anchor="middle" x="1634.62" y="-163.7" font-family="Times New Roman,serif" font-size="14.00">data 290.0000</text>
<polyline fill="none" stroke="black" points="1681.25,-151 1681.25,-186.5"/>
<text text-anchor="middle" x="1721.88" y="-163.7" font-family="Times New Roman,serif" font-size="14.00">grad 0.0000</text>
</g>
<!-- 2249721859600* -->
<g id="node2" class="node">
<title>2249721859600*</title>
<ellipse fill="none" stroke="black" cx="1500.75" cy="-168.5" rx="27" ry="18"/>
<text text-anchor="middle" x="1500.75" y="-163.45" font-family="Times New Roman,serif" font-size="14.00">*</text>
</g>
<!-- 2249721859600*&#45;&gt;2249721859600 -->
<g id="edge1" class="edge">
<title>2249721859600*&#45;&gt;2249721859600</title>
<path fill="none" stroke="black" d="M1528.23,-168.5C1535.36,-168.5 1543.54,-168.5 1552.27,-168.5"/>
<polygon fill="black" stroke="black" points="1552.06,-172 1562.06,-168.5 1552.06,-165 1552.06,-172"/>
</g>
<!-- 2249721858064 -->
<g id="node3" class="node">
<title>2249721858064</title>
<polygon fill="none" stroke="black" points="621,-151.5 621,-187.5 801.75,-187.5 801.75,-151.5 621,-151.5"/>
<text text-anchor="middle" x="630.88" y="-164.7" font-family="Times New Roman,serif" font-size="14.00">i</text>
<polyline fill="none" stroke="black" points="640.75,-152 640.75,-187.5"/>
<text text-anchor="middle" x="680.62" y="-164.7" font-family="Times New Roman,serif" font-size="14.00">data 7.0000</text>
<polyline fill="none" stroke="black" points="720.5,-152 720.5,-187.5"/>
<text text-anchor="middle" x="761.12" y="-164.7" font-family="Times New Roman,serif" font-size="14.00">grad 0.0000</text>
</g>
<!-- 2249721859088**2 -->
<g id="node6" class="node">
<title>2249721859088**2</title>
<ellipse fill="none" stroke="black" cx="866.25" cy="-169.5" rx="27" ry="18"/>
<text text-anchor="middle" x="866.25" y="-164.45" font-family="Times New Roman,serif" font-size="14.00">**2</text>
</g>
<!-- 2249721858064&#45;&gt;2249721859088**2 -->
<g id="edge15" class="edge">
<title>2249721858064&#45;&gt;2249721859088**2</title>
<path fill="none" stroke="black" d="M802.19,-169.5C811.08,-169.5 819.72,-169.5 827.61,-169.5"/>
<polygon fill="black" stroke="black" points="827.43,-173 837.43,-169.5 827.43,-166 827.43,-173"/>
</g>
<!-- 2249721858064+ -->
<g id="node4" class="node">
<title>2249721858064+</title>
<ellipse fill="none" stroke="black" cx="556.5" cy="-169.5" rx="27" ry="18"/>
<text text-anchor="middle" x="556.5" y="-164.45" font-family="Times New Roman,serif" font-size="14.00">+</text>
</g>
<!-- 2249721858064+&#45;&gt;2249721858064 -->
<g id="edge2" class="edge">
<title>2249721858064+&#45;&gt;2249721858064</title>
<path fill="none" stroke="black" d="M583.78,-169.5C591.31,-169.5 599.99,-169.5 609.22,-169.5"/>
<polygon fill="black" stroke="black" points="609.18,-173 619.18,-169.5 609.18,-166 609.18,-173"/>
</g>
<!-- 2249721859088 -->
<g id="node5" class="node">
<title>2249721859088</title>
<polygon fill="none" stroke="black" points="929.25,-151.5 929.25,-187.5 1116.75,-187.5 1116.75,-151.5 929.25,-151.5"/>
<text text-anchor="middle" x="939.12" y="-164.7" font-family="Times New Roman,serif" font-size="14.00">j</text>
<polyline fill="none" stroke="black" points="949,-152 949,-187.5"/>
<text text-anchor="middle" x="992.25" y="-164.7" font-family="Times New Roman,serif" font-size="14.00">data 49.0000</text>
<polyline fill="none" stroke="black" points="1035.5,-152 1035.5,-187.5"/>
<text text-anchor="middle" x="1076.12" y="-164.7" font-family="Times New Roman,serif" font-size="14.00">grad 0.0000</text>
</g>
<!-- 2249721859536+ -->
<g id="node21" class="node">
<title>2249721859536+</title>
<ellipse fill="none" stroke="black" cx="1179.75" cy="-141.5" rx="27" ry="18"/>
<text text-anchor="middle" x="1179.75" y="-136.45" font-family="Times New Roman,serif" font-size="14.00">+</text>
</g>
<!-- 2249721859088&#45;&gt;2249721859536+ -->
<g id="edge19" class="edge">
<title>2249721859088&#45;&gt;2249721859536+</title>
<path fill="none" stroke="black" d="M1117.14,-152.65C1125.9,-151.06 1134.38,-149.53 1142.09,-148.13"/>
<polygon fill="black" stroke="black" points="1142.46,-151.62 1151.68,-146.4 1141.21,-144.73 1142.46,-151.62"/>
</g>
<!-- 2249721859088**2&#45;&gt;2249721859088 -->
<g id="edge3" class="edge">
<title>2249721859088**2&#45;&gt;2249721859088</title>
<path fill="none" stroke="black" d="M893.5,-169.5C900.66,-169.5 908.87,-169.5 917.6,-169.5"/>
<polygon fill="black" stroke="black" points="917.39,-173 927.39,-169.5 917.39,-166 917.39,-173"/>
</g>
<!-- 2249721857936 -->
<g id="node7" class="node">
<title>2249721857936</title>
<polygon fill="none" stroke="black" points="0,-165.5 0,-201.5 183.75,-201.5 183.75,-165.5 0,-165.5"/>
<text text-anchor="middle" x="11.38" y="-178.7" font-family="Times New Roman,serif" font-size="14.00">b</text>
<polyline fill="none" stroke="black" points="22.75,-166 22.75,-201.5"/>
<text text-anchor="middle" x="62.62" y="-178.7" font-family="Times New Roman,serif" font-size="14.00">data 3.0000</text>
<polyline fill="none" stroke="black" points="102.5,-166 102.5,-201.5"/>
<text text-anchor="middle" x="143.12" y="-178.7" font-family="Times New Roman,serif" font-size="14.00">grad 0.0000</text>
</g>
<!-- 2249721858960* -->
<g id="node19" class="node">
<title>2249721858960*</title>
<ellipse fill="none" stroke="black" cx="246.75" cy="-155.5" rx="27" ry="18"/>
<text text-anchor="middle" x="246.75" y="-150.45" font-family="Times New Roman,serif" font-size="14.00">*</text>
</g>
<!-- 2249721857936&#45;&gt;2249721858960* -->
<g id="edge8" class="edge">
<title>2249721857936&#45;&gt;2249721858960*</title>
<path fill="none" stroke="black" d="M184.01,-166.81C192.84,-165.19 201.4,-163.62 209.19,-162.2"/>
<polygon fill="black" stroke="black" points="209.67,-165.67 218.88,-160.42 208.41,-158.78 209.67,-165.67"/>
</g>
<!-- 2249721858128 -->
<g id="node8" class="node">
<title>2249721858128</title>
<polygon fill="none" stroke="black" points="310.12,-55.5 310.12,-91.5 493.12,-91.5 493.12,-55.5 310.12,-55.5"/>
<text text-anchor="middle" x="321.12" y="-68.7" font-family="Times New Roman,serif" font-size="14.00">e</text>
<polyline fill="none" stroke="black" points="332.12,-56 332.12,-91.5"/>
<text text-anchor="middle" x="372" y="-68.7" font-family="Times New Roman,serif" font-size="14.00">data 4.0000</text>
<polyline fill="none" stroke="black" points="411.88,-56 411.88,-91.5"/>
<text text-anchor="middle" x="452.5" y="-68.7" font-family="Times New Roman,serif" font-size="14.00">grad 0.0000</text>
</g>
<!-- 2249721859344* -->
<g id="node13" class="node">
<title>2249721859344*</title>
<ellipse fill="none" stroke="black" cx="556.5" cy="-59.5" rx="27" ry="18"/>
<text text-anchor="middle" x="556.5" y="-54.45" font-family="Times New Roman,serif" font-size="14.00">*</text>
</g>
<!-- 2249721858128&#45;&gt;2249721859344* -->
<g id="edge17" class="edge">
<title>2249721858128&#45;&gt;2249721859344*</title>
<path fill="none" stroke="black" d="M493.32,-65.19C501.93,-64.41 510.28,-63.64 517.93,-62.94"/>
<polygon fill="black" stroke="black" points="518.16,-66.43 527.8,-62.04 517.52,-59.46 518.16,-66.43"/>
</g>
<!-- 2249721857104 -->
<g id="node9" class="node">
<title>2249721857104</title>
<polygon fill="none" stroke="black" points="619.5,-96.5 619.5,-132.5 803.25,-132.5 803.25,-96.5 619.5,-96.5"/>
<text text-anchor="middle" x="630.88" y="-109.7" font-family="Times New Roman,serif" font-size="14.00">d</text>
<polyline fill="none" stroke="black" points="642.25,-97 642.25,-132.5"/>
<text text-anchor="middle" x="682.12" y="-109.7" font-family="Times New Roman,serif" font-size="14.00">data 1.0000</text>
<polyline fill="none" stroke="black" points="722,-97 722,-132.5"/>
<text text-anchor="middle" x="762.62" y="-109.7" font-family="Times New Roman,serif" font-size="14.00">grad 0.0000</text>
</g>
<!-- 2249721859408+ -->
<g id="node16" class="node">
<title>2249721859408+</title>
<ellipse fill="none" stroke="black" cx="866.25" cy="-114.5" rx="27" ry="18"/>
<text text-anchor="middle" x="866.25" y="-109.45" font-family="Times New Roman,serif" font-size="14.00">+</text>
</g>
<!-- 2249721857104&#45;&gt;2249721859408+ -->
<g id="edge9" class="edge">
<title>2249721857104&#45;&gt;2249721859408+</title>
<path fill="none" stroke="black" d="M803.51,-114.5C811.89,-114.5 820.02,-114.5 827.48,-114.5"/>
<polygon fill="black" stroke="black" points="827.45,-118 837.45,-114.5 827.45,-111 827.45,-118"/>
</g>
<!-- 2249721857168 -->
<g id="node10" class="node">
<title>2249721857168</title>
<polygon fill="none" stroke="black" points="310.12,-192.5 310.12,-228.5 493.12,-228.5 493.12,-192.5 310.12,-192.5"/>
<text text-anchor="middle" x="321.12" y="-205.7" font-family="Times New Roman,serif" font-size="14.00">c</text>
<polyline fill="none" stroke="black" points="332.12,-193 332.12,-228.5"/>
<text text-anchor="middle" x="372" y="-205.7" font-family="Times New Roman,serif" font-size="14.00">data 1.0000</text>
<polyline fill="none" stroke="black" points="411.88,-193 411.88,-228.5"/>
<text text-anchor="middle" x="452.5" y="-205.7" font-family="Times New Roman,serif" font-size="14.00">grad 0.0000</text>
</g>
<!-- 2249721857168&#45;&gt;2249721858064+ -->
<g id="edge10" class="edge">
<title>2249721857168&#45;&gt;2249721858064+</title>
<path fill="none" stroke="black" d="M471.46,-192.04C488.22,-187.54 505.47,-182.92 519.95,-179.03"/>
<polygon fill="black" stroke="black" points="520.69,-182.46 529.44,-176.49 518.88,-175.7 520.69,-182.46"/>
</g>
<!-- 2249721858832 -->
<g id="node11" class="node">
<title>2249721858832</title>
<polygon fill="none" stroke="black" points="1248.38,-178.5 1248.38,-214.5 1432.12,-214.5 1432.12,-178.5 1248.38,-178.5"/>
<text text-anchor="middle" x="1259.75" y="-191.7" font-family="Times New Roman,serif" font-size="14.00">g</text>
<polyline fill="none" stroke="black" points="1271.12,-179 1271.12,-214.5"/>
<text text-anchor="middle" x="1311" y="-191.7" font-family="Times New Roman,serif" font-size="14.00">data 5.0000</text>
<polyline fill="none" stroke="black" points="1350.88,-179 1350.88,-214.5"/>
<text text-anchor="middle" x="1391.5" y="-191.7" font-family="Times New Roman,serif" font-size="14.00">grad 0.0000</text>
</g>
<!-- 2249721858832&#45;&gt;2249721859600* -->
<g id="edge12" class="edge">
<title>2249721858832&#45;&gt;2249721859600*</title>
<path fill="none" stroke="black" d="M1432.53,-180.37C1443.27,-178.48 1453.71,-176.63 1463.04,-174.99"/>
<polygon fill="black" stroke="black" points="1463.46,-178.47 1472.7,-173.28 1462.24,-171.57 1463.46,-178.47"/>
</g>
<!-- 2249721859344 -->
<g id="node12" class="node">
<title>2249721859344</title>
<polygon fill="none" stroke="black" points="619.5,-41.5 619.5,-77.5 803.25,-77.5 803.25,-41.5 619.5,-41.5"/>
<text text-anchor="middle" x="630.88" y="-54.7" font-family="Times New Roman,serif" font-size="14.00">k</text>
<polyline fill="none" stroke="black" points="642.25,-42 642.25,-77.5"/>
<text text-anchor="middle" x="682.12" y="-54.7" font-family="Times New Roman,serif" font-size="14.00">data 8.0000</text>
<polyline fill="none" stroke="black" points="722,-42 722,-77.5"/>
<text text-anchor="middle" x="762.62" y="-54.7" font-family="Times New Roman,serif" font-size="14.00">grad 0.0000</text>
</g>
<!-- 2249721859344&#45;&gt;2249721859408+ -->
<g id="edge13" class="edge">
<title>2249721859344&#45;&gt;2249721859408+</title>
<path fill="none" stroke="black" d="M775.26,-77.87C784.7,-80.92 794.27,-84.17 803.25,-87.5 813.09,-91.14 823.61,-95.54 833.15,-99.71"/>
<polygon fill="black" stroke="black" points="831.46,-102.79 842.02,-103.66 834.3,-96.39 831.46,-102.79"/>
</g>
<!-- 2249721859344*&#45;&gt;2249721859344 -->
<g id="edge4" class="edge">
<title>2249721859344*&#45;&gt;2249721859344</title>
<path fill="none" stroke="black" d="M583.78,-59.5C590.92,-59.5 599.11,-59.5 607.82,-59.5"/>
<polygon fill="black" stroke="black" points="607.56,-63 617.56,-59.5 607.56,-56 607.56,-63"/>
</g>
<!-- 2249721856848 -->
<g id="node14" class="node">
<title>2249721856848</title>
<polygon fill="none" stroke="black" points="0.38,-110.5 0.38,-146.5 183.38,-146.5 183.38,-110.5 0.38,-110.5"/>
<text text-anchor="middle" x="11.38" y="-123.7" font-family="Times New Roman,serif" font-size="14.00">a</text>
<polyline fill="none" stroke="black" points="22.38,-111 22.38,-146.5"/>
<text text-anchor="middle" x="62.25" y="-123.7" font-family="Times New Roman,serif" font-size="14.00">data 2.0000</text>
<polyline fill="none" stroke="black" points="102.12,-111 102.12,-146.5"/>
<text text-anchor="middle" x="142.75" y="-123.7" font-family="Times New Roman,serif" font-size="14.00">grad 0.0000</text>
</g>
<!-- 2249721856848&#45;&gt;2249721858960* -->
<g id="edge20" class="edge">
<title>2249721856848&#45;&gt;2249721858960*</title>
<path fill="none" stroke="black" d="M183.57,-144.52C192.45,-146.09 201.07,-147.61 208.91,-148.99"/>
<polygon fill="black" stroke="black" points="208.22,-152.42 218.67,-150.72 209.43,-145.53 208.22,-152.42"/>
</g>
<!-- 2249721859408 -->
<g id="node15" class="node">
<title>2249721859408</title>
<polygon fill="none" stroke="black" points="932.62,-96.5 932.62,-132.5 1113.38,-132.5 1113.38,-96.5 932.62,-96.5"/>
<text text-anchor="middle" x="942.5" y="-109.7" font-family="Times New Roman,serif" font-size="14.00">l</text>
<polyline fill="none" stroke="black" points="952.38,-97 952.38,-132.5"/>
<text text-anchor="middle" x="992.25" y="-109.7" font-family="Times New Roman,serif" font-size="14.00">data 9.0000</text>
<polyline fill="none" stroke="black" points="1032.12,-97 1032.12,-132.5"/>
<text text-anchor="middle" x="1072.75" y="-109.7" font-family="Times New Roman,serif" font-size="14.00">grad 0.0000</text>
</g>
<!-- 2249721859408&#45;&gt;2249721859536+ -->
<g id="edge16" class="edge">
<title>2249721859408&#45;&gt;2249721859536+</title>
<path fill="none" stroke="black" d="M1113.57,-130.13C1123.59,-131.88 1133.33,-133.57 1142.09,-135.1"/>
<polygon fill="black" stroke="black" points="1141.43,-138.54 1151.88,-136.81 1142.63,-131.65 1141.43,-138.54"/>
</g>
<!-- 2249721859408+&#45;&gt;2249721859408 -->
<g id="edge5" class="edge">
<title>2249721859408+&#45;&gt;2249721859408</title>
<path fill="none" stroke="black" d="M893.5,-114.5C901.52,-114.5 910.87,-114.5 920.79,-114.5"/>
<polygon fill="black" stroke="black" points="920.69,-118 930.69,-114.5 920.69,-111 920.69,-118"/>
</g>
<!-- 2249721858512 -->
<g id="node17" class="node">
<title>2249721858512</title>
<polygon fill="none" stroke="black" points="310.88,-0.5 310.88,-36.5 492.38,-36.5 492.38,-0.5 310.88,-0.5"/>
<text text-anchor="middle" x="321.12" y="-13.7" font-family="Times New Roman,serif" font-size="14.00">f</text>
<polyline fill="none" stroke="black" points="331.38,-1 331.38,-36.5"/>
<text text-anchor="middle" x="371.25" y="-13.7" font-family="Times New Roman,serif" font-size="14.00">data 2.0000</text>
<polyline fill="none" stroke="black" points="411.12,-1 411.12,-36.5"/>
<text text-anchor="middle" x="451.75" y="-13.7" font-family="Times New Roman,serif" font-size="14.00">grad 0.0000</text>
</g>
<!-- 2249721858512&#45;&gt;2249721859344* -->
<g id="edge14" class="edge">
<title>2249721858512&#45;&gt;2249721859344*</title>
<path fill="none" stroke="black" d="M471.46,-36.96C488.22,-41.46 505.47,-46.08 519.95,-49.97"/>
<polygon fill="black" stroke="black" points="518.88,-53.3 529.44,-52.51 520.69,-46.54 518.88,-53.3"/>
</g>
<!-- 2249721858960 -->
<g id="node18" class="node">
<title>2249721858960</title>
<polygon fill="none" stroke="black" points="309.75,-137.5 309.75,-173.5 493.5,-173.5 493.5,-137.5 309.75,-137.5"/>
<text text-anchor="middle" x="321.12" y="-150.7" font-family="Times New Roman,serif" font-size="14.00">h</text>
<polyline fill="none" stroke="black" points="332.5,-138 332.5,-173.5"/>
<text text-anchor="middle" x="372.38" y="-150.7" font-family="Times New Roman,serif" font-size="14.00">data 6.0000</text>
<polyline fill="none" stroke="black" points="412.25,-138 412.25,-173.5"/>
<text text-anchor="middle" x="452.88" y="-150.7" font-family="Times New Roman,serif" font-size="14.00">grad 0.0000</text>
</g>
<!-- 2249721858960&#45;&gt;2249721858064+ -->
<g id="edge11" class="edge">
<title>2249721858960&#45;&gt;2249721858064+</title>
<path fill="none" stroke="black" d="M493.76,-163.85C502.32,-164.63 510.63,-165.39 518.22,-166.09"/>
<polygon fill="black" stroke="black" points="517.73,-169.56 528.01,-166.98 518.37,-162.58 517.73,-169.56"/>
</g>
<!-- 2249721858960*&#45;&gt;2249721858960 -->
<g id="edge6" class="edge">
<title>2249721858960*&#45;&gt;2249721858960</title>
<path fill="none" stroke="black" d="M274.03,-155.5C281.17,-155.5 289.36,-155.5 298.07,-155.5"/>
<polygon fill="black" stroke="black" points="297.81,-159 307.81,-155.5 297.81,-152 297.81,-159"/>
</g>
<!-- 2249721859536 -->
<g id="node20" class="node">
<title>2249721859536</title>
<polygon fill="none" stroke="black" points="1242.75,-123.5 1242.75,-159.5 1437.75,-159.5 1437.75,-123.5 1242.75,-123.5"/>
<text text-anchor="middle" x="1256.38" y="-136.7" font-family="Times New Roman,serif" font-size="14.00">m</text>
<polyline fill="none" stroke="black" points="1270,-124 1270,-159.5"/>
<text text-anchor="middle" x="1313.25" y="-136.7" font-family="Times New Roman,serif" font-size="14.00">data 58.0000</text>
<polyline fill="none" stroke="black" points="1356.5,-124 1356.5,-159.5"/>
<text text-anchor="middle" x="1397.12" y="-136.7" font-family="Times New Roman,serif" font-size="14.00">grad 0.0000</text>
</g>
<!-- 2249721859536&#45;&gt;2249721859600* -->
<g id="edge18" class="edge">
<title>2249721859536&#45;&gt;2249721859600*</title>
<path fill="none" stroke="black" d="M1438.02,-157.98C1446.83,-159.49 1455.35,-160.94 1463.09,-162.25"/>
<polygon fill="black" stroke="black" points="1462.24,-165.66 1472.69,-163.89 1463.42,-158.76 1462.24,-165.66"/>
</g>
<!-- 2249721859536+&#45;&gt;2249721859536 -->
<g id="edge7" class="edge">
<title>2249721859536+&#45;&gt;2249721859536</title>
<path fill="none" stroke="black" d="M1206.92,-141.5C1214.09,-141.5 1222.34,-141.5 1231.13,-141.5"/>
<polygon fill="black" stroke="black" points="1231.01,-145 1241.01,-141.5 1231.01,-138 1231.01,-145"/>
</g>
</g>
</svg>
